<mxfile host="65bd71144e">
    <diagram id="l-mvjCWnVOQ-OwChu9-i" name="第 1 页">
        <mxGraphModel dx="1039" dy="440" grid="0" gridSize="10" guides="1" tooltips="1" connect="1" arrows="1" fold="1" page="1" pageScale="1" pageWidth="827" pageHeight="1169" math="0" shadow="0">
            <root>
                <mxCell id="0"/>
                <mxCell id="1" parent="0"/>
                <mxCell id="12" value="" style="rounded=1;whiteSpace=wrap;html=1;fillColor=default;" vertex="1" parent="1">
                    <mxGeometry x="49" y="358" width="701" height="329" as="geometry"/>
                </mxCell>
                <mxCell id="2" value="" style="rounded=1;whiteSpace=wrap;html=1;fillColor=default;" vertex="1" parent="1">
                    <mxGeometry x="72" y="430" width="371" height="224" as="geometry"/>
                </mxCell>
                <mxCell id="7" value="车牌号搜索模块" style="rounded=0;whiteSpace=wrap;html=1;" vertex="1" parent="1">
                    <mxGeometry x="193" y="502" width="112" height="42" as="geometry"/>
                </mxCell>
                <mxCell id="11" value="&lt;span style=&quot;font-size: 18px;&quot;&gt;&lt;b&gt;客户端主要模块&lt;/b&gt;&lt;/span&gt;" style="text;strokeColor=none;align=center;fillColor=none;html=1;verticalAlign=middle;whiteSpace=wrap;rounded=0;" vertex="1" parent="1">
                    <mxGeometry x="300.5" y="338" width="184" height="85" as="geometry"/>
                </mxCell>
                <mxCell id="13" value="颜色搜索模块" style="rounded=0;whiteSpace=wrap;html=1;" vertex="1" parent="1">
                    <mxGeometry x="90" y="571" width="112" height="42" as="geometry"/>
                </mxCell>
                <mxCell id="14" value="时间搜索模块" style="rounded=0;whiteSpace=wrap;html=1;" vertex="1" parent="1">
                    <mxGeometry x="288" y="571" width="112" height="42" as="geometry"/>
                </mxCell>
                <mxCell id="15" value="&lt;font style=&quot;font-size: 14px;&quot;&gt;&lt;b style=&quot;&quot;&gt;模糊搜索&lt;/b&gt;&lt;/font&gt;" style="text;strokeColor=none;align=center;fillColor=none;html=1;verticalAlign=middle;whiteSpace=wrap;rounded=0;" vertex="1" parent="1">
                    <mxGeometry x="195.5" y="444" width="105" height="33" as="geometry"/>
                </mxCell>
                <mxCell id="17" value="&lt;b style=&quot;border-color: var(--border-color);&quot;&gt;导航模块&lt;/b&gt;" style="rounded=1;whiteSpace=wrap;html=1;fontSize=14;" vertex="1" parent="1">
                    <mxGeometry x="545" y="444" width="120" height="60" as="geometry"/>
                </mxCell>
                <mxCell id="18" value="&lt;b style=&quot;border-color: var(--border-color);&quot;&gt;数据传输模块&lt;/b&gt;" style="rounded=1;whiteSpace=wrap;html=1;fontSize=14;" vertex="1" parent="1">
                    <mxGeometry x="545" y="535" width="120" height="60" as="geometry"/>
                </mxCell>
            </root>
        </mxGraphModel>
    </diagram>
</mxfile>